<svg width="141" height="58" viewBox="0 0 141 58" fill="none" xmlns="http://www.w3.org/2000/svg">
<path d="M136.216 22.2759L139.852 3.36969C140.099 2.08476 138.697 1.12156 137.587 1.81283L121.14 12.0463C119.996 12.7579 120.297 14.4994 121.614 14.7856L128.886 16.3665C129.279 16.4519 129.621 16.6914 129.836 17.0313L133.475 22.7936C134.201 23.9432 135.959 23.6111 136.216 22.2759Z" fill="#68EBB8"/>
<rect y="22" width="128" height="36" rx="4" fill="#68EBB8"/>
<path d="M11.682 46H9.23403V30.856H12.258L14.802 39.856L17.346 30.856H20.37V46H17.946V35.368L15.93 42.712H13.698L11.682 35.392V46ZM28.3672 34.216H31.1032V46H28.4152V44.824C28.2232 45.608 27.6552 46 26.7112 46H25.9672C24.3352 46 23.5192 45.208 23.5192 43.624V34.216H26.2312V43.24C26.2312 43.496 26.2792 43.672 26.3752 43.768C26.4712 43.848 26.6472 43.888 26.9032 43.888H27.6232C28.1192 43.888 28.3672 43.624 28.3672 43.096V34.216ZM38.4251 43.408V41.752C38.4251 41.496 38.3771 41.328 38.2811 41.248C38.1851 41.152 38.0011 41.104 37.7291 41.104H36.4331C34.7211 41.104 33.8651 40.32 33.8651 38.752V36.592C33.8651 35.008 34.7371 34.216 36.4811 34.216H38.3771C40.1051 34.216 40.9691 35.008 40.9691 36.592V37.696H38.3531V36.808C38.3531 36.552 38.3051 36.384 38.2091 36.304C38.1131 36.208 37.9371 36.16 37.6811 36.16H37.2011C36.9291 36.16 36.7451 36.208 36.6491 36.304C36.5531 36.384 36.5051 36.552 36.5051 36.808V38.536C36.5051 38.792 36.5531 38.968 36.6491 39.064C36.7451 39.144 36.9291 39.184 37.2011 39.184H38.4971C40.2251 39.184 41.0891 39.968 41.0891 41.536V43.624C41.0891 45.208 40.2171 46 38.4731 46H36.5291C34.7851 46 33.9131 45.208 33.9131 43.624V42.544H36.5771V43.408C36.5771 43.664 36.6251 43.84 36.7211 43.936C36.8171 44.016 36.9931 44.056 37.2491 44.056H37.7291C38.0011 44.056 38.1851 44.016 38.2811 43.936C38.3771 43.84 38.4251 43.664 38.4251 43.408ZM48.5764 34.216H51.2644V46H48.5284V44.992C48.2884 45.664 47.7364 46 46.8724 46H46.1284C44.4964 46 43.6804 45.208 43.6804 43.624V36.592C43.6804 35.008 44.4964 34.216 46.1284 34.216H46.8724C47.8164 34.216 48.3844 34.6 48.5764 35.368V34.216ZM47.0644 43.888H47.7844C48.2804 43.888 48.5284 43.624 48.5284 43.096V37.12C48.5284 36.592 48.2804 36.328 47.7844 36.328H47.0644C46.8084 36.328 46.6324 36.376 46.5364 36.472C46.4404 36.552 46.3924 36.72 46.3924 36.976V43.24C46.3924 43.496 46.4404 43.672 46.5364 43.768C46.6324 43.848 46.8084 43.888 47.0644 43.888ZM64.9209 36.688V33.52C64.9209 33.264 64.8729 33.096 64.7769 33.016C64.6809 32.92 64.4969 32.872 64.2249 32.872H62.0409V37.336H64.2249C64.4969 37.336 64.6809 37.296 64.7769 37.216C64.8729 37.12 64.9209 36.944 64.9209 36.688ZM64.9209 43.336V40C64.9209 39.744 64.8729 39.576 64.7769 39.496C64.6809 39.4 64.4969 39.352 64.2249 39.352H62.0409V43.984H64.2249C64.4969 43.984 64.6809 43.944 64.7769 43.864C64.8729 43.768 64.9209 43.592 64.9209 43.336ZM59.2809 30.856H65.0409C66.7849 30.856 67.6569 31.648 67.6569 33.232V36.496C67.6569 37.504 67.3209 38.12 66.6489 38.344C67.3209 38.568 67.6569 39.144 67.6569 40.072V43.624C67.6569 45.208 66.7849 46 65.0409 46H59.2809V30.856ZM75.4592 34.216H78.1472V46H75.4112V44.992C75.1712 45.664 74.6192 46 73.7552 46H73.0112C71.3792 46 70.5632 45.208 70.5632 43.624V36.592C70.5632 35.008 71.3792 34.216 73.0112 34.216H73.7552C74.6992 34.216 75.2672 34.6 75.4592 35.368V34.216ZM73.9472 43.888H74.6672C75.1632 43.888 75.4112 43.624 75.4112 43.096V37.12C75.4112 36.592 75.1632 36.328 74.6672 36.328H73.9472C73.6912 36.328 73.5152 36.376 73.4192 36.472C73.3232 36.552 73.2752 36.72 73.2752 36.976V43.24C73.2752 43.496 73.3232 43.672 73.4192 43.768C73.5152 43.848 73.6912 43.888 73.9472 43.888ZM83.1685 49.264H81.5605V47.176H82.7845C83.4885 47.176 83.9205 46.896 84.0805 46.336L84.2725 45.568H82.9765L80.2885 34.216H83.0965L84.7765 43.288L86.3365 34.216H89.0725L86.4325 46.72C86.0165 48.416 84.9285 49.264 83.1685 49.264ZM95.4954 43.408V41.752C95.4954 41.496 95.4474 41.328 95.3514 41.248C95.2554 41.152 95.0714 41.104 94.7994 41.104H93.5034C91.7914 41.104 90.9354 40.32 90.9354 38.752V36.592C90.9354 35.008 91.8074 34.216 93.5514 34.216H95.4474C97.1754 34.216 98.0394 35.008 98.0394 36.592V37.696H95.4234V36.808C95.4234 36.552 95.3754 36.384 95.2794 36.304C95.1834 36.208 95.0074 36.16 94.7514 36.16H94.2714C93.9994 36.16 93.8154 36.208 93.7194 36.304C93.6234 36.384 93.5754 36.552 93.5754 36.808V38.536C93.5754 38.792 93.6234 38.968 93.7194 39.064C93.8154 39.144 93.9994 39.184 94.2714 39.184H95.5674C97.2954 39.184 98.1594 39.968 98.1594 41.536V43.624C98.1594 45.208 97.2874 46 95.5434 46H93.5994C91.8554 46 90.9834 45.208 90.9834 43.624V42.544H93.6474V43.408C93.6474 43.664 93.6954 43.84 93.7914 43.936C93.8874 44.016 94.0634 44.056 94.3194 44.056H94.7994C95.0714 44.056 95.2554 44.016 95.3514 43.936C95.4474 43.84 95.4954 43.664 95.4954 43.408ZM105.647 34.216H108.335V46H105.599V44.992C105.359 45.664 104.807 46 103.943 46H103.199C101.567 46 100.751 45.208 100.751 43.624V36.592C100.751 35.008 101.567 34.216 103.199 34.216H103.943C104.887 34.216 105.455 34.6 105.647 35.368V34.216ZM104.135 43.888H104.855C105.351 43.888 105.599 43.624 105.599 43.096V37.12C105.599 36.592 105.351 36.328 104.855 36.328H104.135C103.879 36.328 103.703 36.376 103.607 36.472C103.511 36.552 103.463 36.72 103.463 36.976V43.24C103.463 43.496 103.511 43.672 103.607 43.768C103.703 43.848 103.879 43.888 104.135 43.888ZM115.756 34.216H116.476C118.124 34.216 118.948 35.008 118.948 36.592V46H116.212V36.976C116.212 36.72 116.164 36.552 116.068 36.472C115.972 36.376 115.796 36.328 115.54 36.328H114.82C114.324 36.328 114.076 36.592 114.076 37.12V46H111.364V34.216H114.052V35.296C114.276 34.576 114.844 34.216 115.756 34.216Z" fill="#2A2A38"/>
</svg>
