<?xml version="1.0" encoding="UTF-8"?>
<!DOCTYPE svg  PUBLIC '-//W3C//DTD SVG 1.1//EN'  'http://www.w3.org/Graphics/SVG/1.1/DTD/svg11.dtd'>
<svg clip-rule="evenodd" fill-rule="evenodd" stroke-linejoin="round" stroke-miterlimit="2" version="1.1" viewBox="0 0 261 102" xml:space="preserve" xmlns="http://www.w3.org/2000/svg">
    <g transform="scale(.50844 .19731)">
        <rect width="512" height="512" fill="none"/>
        <g transform="matrix(4.222 0 0 10.88 -12.198 -587.99)">
            <g transform="matrix(.58995 0 0 .58995 -.6455 40.409)">
                <rect x="14.638" y="57.961" width="11.949" height="32.553" fill="#30304f"/>
            </g>
            <g transform="matrix(.58995 0 0 .58995 -.6455 40.409)">
                <path d="m10.106 58.385 8.449-8.449 8.032 8.032-8.449 8.449-8.032-8.032z" fill="#30304f"/>
            </g>
            <g transform="matrix(.58995 0 0 .58995 -.6455 40.409)">
                <path d="m14.638 90.515 8.449-8.449 8.032 8.032-8.449 8.449-8.032-8.032z" fill="#30304f"/>
            </g>
            <g transform="matrix(.58995 0 0 .58995 -.6455 40.409)">
                <rect x="36.912" y="57.961" width="11.949" height="32.553" fill="#30304f"/>
            </g>
            <g transform="matrix(.58995 0 0 .58995 -.6455 40.409)">
                <path d="m32.38 58.385 8.449-8.449 8.032 8.032-8.449 8.449-8.032-8.032z" fill="#30304f"/>
            </g>
            <g transform="matrix(.58995 0 0 .58995 -.6455 40.409)">
                <path d="m36.912 90.515 8.449-8.449 8.032 8.032-8.449 8.449-8.032-8.032z" fill="#30304f"/>
            </g>
            <g transform="matrix(.58995 0 0 .58995 -.6455 40.409)">
                <rect x="59.186" y="57.967" width="11.949" height="32.548" fill="#30304f"/>
            </g>
            <g transform="matrix(.58995 0 0 .58995 -.6455 40.409)">
                <path d="m54.654 58.385 8.449-8.449 8.032 8.032-8.449 8.449-8.032-8.032z" fill="#30304f"/>
            </g>
            <g transform="matrix(.58995 0 0 .58995 -.6455 40.409)">
                <path d="m59.186 90.515 8.449-8.449 8.032 8.032-8.449 8.449-8.032-8.032z" fill="#30304f"/>
            </g>
            
                <g transform="matrix(.58995 0 0 .58995 77.091 40.409)">
                    <rect x="36.912" y="57.961" width="11.949" height="32.553" fill="#30304f"/>
                </g>
                <g transform="matrix(.58995 0 0 .58995 77.091 40.409)">
                    <path d="m32.38 58.385 8.449-8.449 8.032 8.032-8.449 8.449-8.032-8.032z" fill="#30304f"/>
                </g>
                <g transform="matrix(.58995 0 0 .58995 77.091 40.409)">
                    <path d="m36.912 90.515 8.449-8.449 8.032 8.032-8.449 8.449-8.032-8.032z" fill="#30304f"/>
                </g>
                <g transform="matrix(.58995 0 0 .58995 77.091 40.409)">
                    <rect x="59.186" y="57.967" width="11.949" height="32.548" fill="#30304f"/>
                </g>
                <g transform="matrix(.58995 0 0 .58995 77.091 40.409)">
                    <path d="m54.654 58.385 8.449-8.449 8.032 8.032-8.449 8.449-8.032-8.032z" fill="#30304f"/>
                </g>
                <g transform="matrix(.58995 0 0 .58995 77.091 40.409)">
                    <path d="m59.186 90.515 8.449-8.449 8.032 8.032-8.449 8.449-8.032-8.032z" fill="#30304f"/>
                </g>
                <g transform="matrix(-.41716 -.41716 -.22809 .22809 123.27 86.166)">
                    <rect x="59.186" y="57.967" width="11.949" height="32.548" fill="#30304f"/>
                </g>
                <g transform="matrix(.41716 -.41716 .41716 .41716 7.4923 101.31)">
                    <path d="m99.386 57.496 8.057-7.978 8.449 8.45-8.449 8.449-8.057-8.921z" fill="#30304f"/>
                </g>
                <g transform="matrix(.41716 -.41716 -.14145 -.14145 61.031 121.29)">
                    <rect x="59.186" y="57.967" width="11.949" height="32.548" fill="#30304f"/>
                </g>
                <g transform="matrix(.41716 .41716 .22809 -.22809 43.372 81.828)">
                    <rect x="59.186" y="57.967" width="11.949" height="32.548" fill="#30304f"/>
                </g>
                <g transform="matrix(-.41716 .41716 -.41716 -.41716 159.15 66.682)">
                    <path d="m99.386 57.496 8.057-7.978 8.449 8.45-8.449 8.449-8.057-8.921z" fill="#30304f"/>
                </g>
                <g transform="matrix(-.41716 .41716 .14145 .14145 105.62 46.708)">
                    <rect x="59.186" y="57.967" width="11.949" height="32.548" fill="#30304f"/>
                </g>
            
            <g transform="matrix(.58995 0 0 .59724 -.6455 39.986)">
                <rect x="103.94" y="57.967" width="11.949" height="32.125" fill="#30304f"/>
            </g>
            <g transform="matrix(.58995 0 0 .58995 -.6455 40.409)">
                <path d="m115.89 89.022v1.492" fill="none"/>
            </g>
            <g transform="matrix(.58995 0 0 .58995 -.6455 40.409)">
                <path d="m99.845 57.955 7.598-8.437 8.449 8.45-8.449 8.449-7.598-8.462z" fill="#30304f"/>
            </g>
            <g transform="matrix(.58995 0 0 .58995 -.6455 40.409)">
                <rect x="81.46" y="35.487" width="11.949" height="55.027" fill="#30304f"/>
            </g>
            <g transform="matrix(.58995 0 0 .58995 -.6455 40.409)">
                <path d="m81.46 90.515 8.449-8.449 8.032 8.032-8.449 8.449-8.032-8.032z" fill="#30304f"/>
            </g>
            <g transform="matrix(.58995 0 0 -.58995 9.9579 146.96)">
                <path d="m81.46 90.515 8.449-8.449 8.032 8.032-8.449 8.449-8.032-8.032z" fill="#30304f"/>
            </g>
            <g transform="matrix(.58995 0 0 .58995 -.6455 40.409)">
                <path d="m76.928 35.902 8.449-8.449 8.032 8.032-8.449 8.449-8.032-8.032z" fill="#30304f"/>
            </g>
        </g>
    </g>
</svg>
